<svg width="61" height="60" viewBox="0 0 61 60" fill="none" xmlns="http://www.w3.org/2000/svg">
  <path
    d="M30.5 43.0435C28.7871 43.0435 27.091 42.7061 25.5085 42.0506C23.926 41.3951 22.4881 40.4344 21.2769 39.2232C20.0657 38.012 19.1049 36.5741 18.4494 34.9915C17.7939 33.409 17.4565 31.7129 17.4565 30C17.4565 28.2871 17.7939 26.591 18.4494 25.0085C19.1049 23.426 20.0657 21.9881 21.2769 20.7769C22.4881 19.5657 23.926 18.6049 25.5085 17.9494C27.091 17.2939 28.7871 16.9565 30.5 16.9565L30.5 23.4783C29.6436 23.4783 28.7955 23.647 28.0042 23.9747C27.213 24.3025 26.494 24.7829 25.8884 25.3885C25.2828 25.9941 24.8024 26.713 24.4747 27.5043C24.1469 28.2955 23.9783 29.1436 23.9783 30C23.9783 30.8565 24.1469 31.7045 24.4747 32.4958C24.8024 33.287 25.2828 34.006 25.8884 34.6116C26.494 35.2172 27.213 35.6976 28.0042 36.0253C28.7955 36.3531 29.6436 36.5218 30.5 36.5218L30.5 43.0435Z"
    fill="#39E9B4" />
  <path
    d="M30.5 43.0435C32.2129 43.0435 33.909 42.7061 35.4915 42.0506C37.074 41.3951 38.5119 40.4344 39.7231 39.2232C40.9343 38.012 41.8951 36.5741 42.5506 34.9915C43.2061 33.409 43.5435 31.7129 43.5435 30C43.5435 28.2871 43.2061 26.591 42.5506 25.0085C41.8951 23.426 40.9343 21.9881 39.7231 20.7769C38.5119 19.5657 37.074 18.6049 35.4915 17.9494C33.909 17.2939 32.2129 16.9565 30.5 16.9565L30.5 23.4783C31.3564 23.4783 32.2045 23.647 32.9958 23.9747C33.787 24.3025 34.506 24.7829 35.1116 25.3885C35.7172 25.9941 36.1976 26.713 36.5253 27.5043C36.8531 28.2955 37.0217 29.1436 37.0217 30C37.0217 30.8565 36.8531 31.7045 36.5253 32.4958C36.1976 33.287 35.7172 34.006 35.1116 34.6116C34.506 35.2172 33.787 35.6976 32.9958 36.0253C32.2045 36.3531 31.3564 36.5218 30.5 36.5218L30.5 43.0435Z"
    fill="#39E9B4" />
  <path
    d="M34.413 -1.03667e-06C34.413 1.71289 34.7504 3.40901 35.4059 4.99152C36.0614 6.57403 37.0222 8.01193 38.2334 9.22313C39.4446 10.4343 40.8825 11.3951 42.465 12.0506C44.0475 12.7061 45.7436 13.0435 47.4565 13.0435C49.1694 13.0435 50.8655 12.7061 52.448 12.0506C54.0306 11.3951 55.4685 10.4343 56.6797 9.22313C57.8909 8.01193 58.8516 6.57403 59.5071 4.99152C60.1626 3.40902 60.5 1.71289 60.5 0L53.9783 6.73775e-07C53.9783 0.856448 53.8096 1.70451 53.4818 2.49576C53.1541 3.28702 52.6737 4.00597 52.0681 4.61157C51.4625 5.21717 50.7435 5.69755 49.9523 6.0253C49.161 6.35305 48.313 6.52174 47.4565 6.52174C46.6001 6.52174 45.752 6.35305 44.9608 6.0253C44.1695 5.69755 43.4506 5.21717 42.845 4.61157C42.2394 4.00597 41.759 3.28701 41.4312 2.49576C41.1035 1.70451 40.9348 0.856447 40.9348 -4.66522e-07L34.413 -1.03667e-06Z"
    fill="#39E9B4" />
  <path
    d="M26.587 60C26.587 58.2871 26.2496 56.591 25.5941 55.0085C24.9386 53.426 23.9778 51.9881 22.7666 50.7769C21.5554 49.5657 20.1175 48.6049 18.535 47.9494C16.9525 47.2939 15.2564 46.9565 13.5435 46.9565C11.8306 46.9565 10.1345 47.2939 8.55196 47.9494C6.96945 48.6049 5.53155 49.5657 4.32035 50.7769C3.10915 51.9881 2.14837 53.426 1.49288 55.0085C0.837379 56.591 0.5 58.2871 0.5 60L7.02174 60C7.02174 59.1436 7.19043 58.2955 7.51818 57.5042C7.84592 56.713 8.32631 55.994 8.93191 55.3884C9.53751 54.7828 10.2565 54.3024 11.0477 53.9747C11.839 53.647 12.687 53.4783 13.5435 53.4783C14.3999 53.4783 15.248 53.647 16.0392 53.9747C16.8305 54.3024 17.5494 54.7828 18.155 55.3884C18.7606 55.994 19.241 56.713 19.5688 57.5042C19.8965 58.2955 20.0652 59.1436 20.0652 60L26.587 60Z"
    fill="#39E9B4" />
  <path
    d="M0.500002 26.087C2.2129 26.087 3.90902 25.7496 5.49152 25.0941C7.07403 24.4386 8.51193 23.4778 9.72313 22.2666C10.9343 21.0554 11.8951 19.6175 12.5506 18.035C13.2061 16.4525 13.5435 14.7564 13.5435 13.0435C13.5435 11.3306 13.2061 9.63446 12.5506 8.05195C11.8951 6.46945 10.9343 5.03154 9.72313 3.82035C8.51193 2.60915 7.07403 1.64837 5.49152 0.992875C3.90902 0.337379 2.21289 -1.70172e-07 0.5 0L0.500001 6.52174C1.35645 6.52174 2.20451 6.69043 2.99576 7.01818C3.78702 7.34592 4.50597 7.82631 5.11157 8.43191C5.71717 9.03751 6.19755 9.75646 6.5253 10.5477C6.85305 11.339 7.02174 12.187 7.02174 13.0435C7.02174 13.8999 6.85305 14.748 6.5253 15.5392C6.19756 16.3305 5.71717 17.0494 5.11157 17.655C4.50597 18.2606 3.78702 18.741 2.99576 19.0688C2.20451 19.3965 1.35645 19.5652 0.500001 19.5652L0.500002 26.087Z"
    fill="#39E9B4" />
  <path
    d="M60.5 60C58.7871 60 57.091 59.6627 55.5085 59.0072C53.926 58.3517 52.4881 57.3909 51.2769 56.1797C50.0657 54.9685 49.1049 53.5306 48.4494 51.9481C47.7939 50.3656 47.4565 48.6695 47.4565 46.9566C47.4565 45.2437 47.7939 43.5475 48.4494 41.965C49.1049 40.3825 50.0657 38.9446 51.2769 37.7334C52.4881 36.5222 53.926 35.5615 55.5085 34.906C57.091 34.2505 58.7871 33.9131 60.5 33.9131L60.5 40.4348C59.6436 40.4348 58.7955 40.6035 58.0042 40.9313C57.213 41.259 56.494 41.7394 55.8884 42.345C55.2828 42.9506 54.8024 43.6695 54.4747 44.4608C54.1469 45.2521 53.9783 46.1001 53.9783 46.9566C53.9783 47.813 54.1469 48.6611 54.4747 49.4523C54.8024 50.2436 55.2828 50.9625 55.8884 51.5681C56.494 52.1737 57.213 52.6541 58.0042 52.9819C58.7955 53.3096 59.6436 53.4783 60.5 53.4783L60.5 60Z"
    fill="#39E9B4" />
</svg>