<svg width="97" height="16" viewBox="0 0 97 16" fill="none" xmlns="http://www.w3.org/2000/svg">
  <path
    d="M0.292892 7.29289C-0.0976334 7.68342 -0.0976334 8.31658 0.292892 8.70711L6.65685 15.0711C7.04738 15.4616 7.68054 15.4616 8.07107 15.0711C8.46159 14.6805 8.46159 14.0474 8.07107 13.6569L2.41422 8L8.07107 2.34315C8.46159 1.95262 8.46159 1.31946 8.07107 0.928932C7.68054 0.538408 7.04738 0.538408 6.65685 0.928932L0.292892 7.29289ZM97 7L95 7L95 9L97 9L97 7ZM91 7L87 7L87 9L91 9L91 7ZM83 7L79 7L79 9L83 9L83 7ZM75 7L71 7L71 9L75 9L75 7ZM67 7L63 7L63 9L67 9L67 7ZM59 7L55 7L55 9L59 9L59 7ZM51 7L47 7L47 9L51 9L51 7ZM43 7L39 7L39 9L43 9L43 7ZM35 7L31 7L31 9L35 9L35 7ZM27 7L23 7L23 9L27 9L27 7ZM19 7L15 7L15 9L19 9L19 7ZM11 7L7 7L7 9L11 9L11 7ZM3 7L1 7L1 9L3 9L3 7ZM0.292892 7.29289C-0.0976334 7.68342 -0.0976334 8.31658 0.292892 8.70711L6.65685 15.0711C7.04738 15.4616 7.68054 15.4616 8.07107 15.0711C8.46159 14.6805 8.46159 14.0474 8.07107 13.6569L2.41422 8L8.07107 2.34315C8.46159 1.95262 8.46159 1.31946 8.07107 0.928932C7.68054 0.538408 7.04738 0.538408 6.65685 0.928932L0.292892 7.29289ZM97 7L95 7L95 9L97 9L97 7ZM91 7L87 7L87 9L91 9L91 7ZM83 7L79 7L79 9L83 9L83 7ZM75 7L71 7L71 9L75 9L75 7ZM67 7L63 7L63 9L67 9L67 7ZM59 7L55 7L55 9L59 9L59 7ZM51 7L47 7L47 9L51 9L51 7ZM43 7L39 7L39 9L43 9L43 7ZM35 7L31 7L31 9L35 9L35 7ZM27 7L23 7L23 9L27 9L27 7ZM19 7L15 7L15 9L19 9L19 7ZM11 7L7 7L7 9L11 9L11 7ZM3 7L1 7L1 9L3 9L3 7Z"
    fill="#39E9B4" />
</svg>