<svg width="61" height="60" viewBox="0 0 61 60" fill="none" xmlns="http://www.w3.org/2000/svg">
  <path
    d="M17.4565 46.9565C17.4565 48.6694 17.7939 50.3656 18.4494 51.9481C19.1049 53.5306 20.0656 54.9685 21.2768 56.1797C22.488 57.3909 23.9259 58.3517 25.5085 59.0071C27.091 59.6626 28.7871 60 30.5 60C32.2129 60 33.909 59.6626 35.4915 59.0071C37.074 58.3516 38.5119 57.3909 39.7231 56.1797C40.9343 54.9685 41.8951 53.5306 42.5506 51.9481C43.2061 50.3656 43.5435 48.6694 43.5435 46.9565L37.0217 46.9565C37.0217 47.813 36.853 48.6611 36.5253 49.4523C36.1975 50.2436 35.7171 50.9625 35.1115 51.5681C34.5059 52.1737 33.787 52.6541 32.9957 52.9818C32.2045 53.3096 31.3564 53.4783 30.5 53.4783C29.6435 53.4783 28.7955 53.3096 28.0042 52.9818C27.213 52.6541 26.494 52.1737 25.8884 51.5681C25.2828 50.9625 24.8024 50.2436 24.4747 49.4523C24.1469 48.661 23.9782 47.813 23.9782 46.9565L17.4565 46.9565Z"
    fill="#39E9B4" />
  <path
    d="M17.4565 16.9565C17.4565 18.6694 17.7939 20.3656 18.4494 21.9481C19.1049 23.5306 20.0656 24.9685 21.2768 26.1797C22.488 27.3909 23.9259 28.3517 25.5085 29.0071C27.091 29.6626 28.7871 30 30.5 30C32.2129 30 33.909 29.6626 35.4915 29.0071C37.074 28.3516 38.5119 27.3909 39.7231 26.1797C40.9343 24.9685 41.8951 23.5306 42.5506 21.9481C43.2061 20.3656 43.5435 18.6694 43.5435 16.9565L37.0217 16.9565C37.0217 17.813 36.853 18.6611 36.5253 19.4523C36.1975 20.2436 35.7171 20.9625 35.1115 21.5681C34.5059 22.1737 33.787 22.6541 32.9957 22.9818C32.2045 23.3096 31.3564 23.4783 30.5 23.4783C29.6435 23.4783 28.7955 23.3096 28.0042 22.9818C27.213 22.6541 26.494 22.1737 25.8884 21.5681C25.2828 20.9625 24.8024 20.2436 24.4747 19.4523C24.1469 18.661 23.9782 17.813 23.9782 16.9565L17.4565 16.9565Z"
    fill="#39E9B4" />
  <path
    d="M13.5435 16.9565C11.8306 16.9565 10.1344 17.2939 8.55193 17.9494C6.96942 18.6049 5.53152 19.5656 4.32032 20.7768C3.10912 21.988 2.14835 23.4259 1.49285 25.0085C0.837356 26.591 0.499977 28.2871 0.499977 30C0.499978 31.7129 0.837358 33.409 1.49285 34.9915C2.14835 36.574 3.10912 38.0119 4.32032 39.2231C5.53152 40.4343 6.96943 41.3951 8.55193 42.0506C10.1344 42.7061 11.8306 43.0435 13.5435 43.0435L13.5435 36.5217C12.687 36.5217 11.8389 36.353 11.0477 36.0253C10.2564 35.6975 9.53749 35.2171 8.93189 34.6115C8.32629 34.0059 7.8459 33.287 7.51816 32.4957C7.19041 31.7045 7.02172 30.8564 7.02172 30C7.02172 29.1435 7.19041 28.2955 7.51815 27.5042C7.8459 26.713 8.32629 25.994 8.93189 25.3884C9.53749 24.7828 10.2564 24.3024 11.0477 23.9747C11.8389 23.6469 12.687 23.4782 13.5435 23.4782L13.5435 16.9565Z"
    fill="#39E9B4" />
  <path
    d="M47.4565 16.9565C49.1694 16.9565 50.8656 17.2939 52.4481 17.9494C54.0306 18.6049 55.4685 19.5656 56.6797 20.7768C57.8909 21.988 58.8517 23.4259 59.5071 25.0085C60.1626 26.591 60.5 28.2871 60.5 30C60.5 31.7129 60.1626 33.409 59.5071 34.9915C58.8516 36.574 57.8909 38.0119 56.6797 39.2231C55.4685 40.4343 54.0306 41.3951 52.4481 42.0506C50.8656 42.7061 49.1694 43.0435 47.4565 43.0435L47.4565 36.5217C48.313 36.5217 49.1611 36.353 49.9523 36.0253C50.7436 35.6975 51.4625 35.2171 52.0681 34.6115C52.6737 34.0059 53.1541 33.287 53.4818 32.4957C53.8096 31.7045 53.9783 30.8564 53.9783 30C53.9783 29.1435 53.8096 28.2955 53.4818 27.5042C53.1541 26.713 52.6737 25.994 52.0681 25.3884C51.4625 24.7828 50.7436 24.3024 49.9523 23.9747C49.1611 23.6469 48.313 23.4782 47.4565 23.4782L47.4565 16.9565Z"
    fill="#39E9B4" />
  <path
    d="M43.5435 13.0435C43.5435 11.3306 43.2061 9.63444 42.5506 8.05193C41.8951 6.46943 40.9344 5.03152 39.7232 3.82033C38.512 2.60913 37.0741 1.64835 35.4915 0.992853C33.909 0.337357 32.2129 -2.15981e-05 30.5 -2.17479e-05C28.7871 -2.18976e-05 27.091 0.337358 25.5085 0.992855C23.926 1.64835 22.4881 2.60912 21.2769 3.82032C20.0657 5.03152 19.1049 6.46943 18.4494 8.05193C17.7939 9.63444 17.4565 11.3306 17.4565 13.0435L23.9783 13.0435C23.9783 12.187 24.147 11.3389 24.4747 10.5477C24.8025 9.75644 25.2829 9.03749 25.8885 8.43189C26.4941 7.82629 27.213 7.3459 28.0043 7.01816C28.7955 6.69041 29.6436 6.52172 30.5 6.52172C31.3565 6.52172 32.2045 6.69041 32.9958 7.01816C33.787 7.3459 34.506 7.82629 35.1116 8.43189C35.7172 9.03749 36.1976 9.75644 36.5253 10.5477C36.8531 11.339 37.0218 12.187 37.0218 13.0435L43.5435 13.0435Z"
    fill="#39E9B4" />
  <path
    d="M43.5435 43.0435C43.5435 41.3306 43.2061 39.6344 42.5506 38.0519C41.8951 36.4694 40.9344 35.0315 39.7232 33.8203C38.512 32.6091 37.0741 31.6483 35.4915 30.9929C33.909 30.3374 32.2129 30 30.5 30C28.7871 30 27.091 30.3374 25.5085 30.9929C23.926 31.6484 22.4881 32.6091 21.2769 33.8203C20.0657 35.0315 19.1049 36.4694 18.4494 38.0519C17.7939 39.6344 17.4565 41.3306 17.4565 43.0435L23.9783 43.0435C23.9783 42.187 24.147 41.3389 24.4747 40.5477C24.8025 39.7564 25.2829 39.0375 25.8885 38.4319C26.4941 37.8263 27.213 37.3459 28.0043 37.0182C28.7955 36.6904 29.6436 36.5217 30.5 36.5217C31.3565 36.5217 32.2045 36.6904 32.9958 37.0182C33.787 37.3459 34.506 37.8263 35.1116 38.4319C35.7172 39.0375 36.1976 39.7564 36.5253 40.5477C36.8531 41.339 37.0218 42.187 37.0218 43.0435L43.5435 43.0435Z"
    fill="#39E9B4" />
</svg>