<svg width="61" height="60" viewBox="0 0 61 60" fill="none" xmlns="http://www.w3.org/2000/svg">
  <path
    d="M30.5 26.087C28.7871 26.087 27.091 25.7496 25.5085 25.0941C23.926 24.4386 22.4881 23.4778 21.2769 22.2666C20.0657 21.0554 19.1049 19.6175 18.4494 18.035C17.7939 16.4525 17.4565 14.7564 17.4565 13.0435C17.4565 11.3306 17.7939 9.63446 18.4494 8.05195C19.1049 6.46945 20.0657 5.03154 21.2769 3.82034C22.4881 2.60915 23.926 1.64837 25.5085 0.992875C27.091 0.337379 28.7871 -2.24619e-07 30.5 0L30.5 6.52174C29.6436 6.52174 28.7955 6.69043 28.0042 7.01818C27.213 7.34592 26.494 7.82631 25.8884 8.43191C25.2828 9.03751 24.8024 9.75646 24.4747 10.5477C24.1469 11.339 23.9783 12.187 23.9783 13.0435C23.9783 13.8999 24.1469 14.748 24.4747 15.5392C24.8024 16.3305 25.2828 17.0494 25.8884 17.655C26.494 18.2606 27.213 18.741 28.0042 19.0688C28.7955 19.3965 29.6436 19.5652 30.5 19.5652L30.5 26.087Z"
    fill="#39E9B4" />
  <path
    d="M30.5 26.087C32.2129 26.087 33.909 25.7496 35.4915 25.0941C37.074 24.4386 38.5119 23.4778 39.7231 22.2666C40.9343 21.0554 41.8951 19.6175 42.5506 18.035C43.2061 16.4525 43.5435 14.7564 43.5435 13.0435C43.5435 11.3306 43.2061 9.63446 42.5506 8.05195C41.8951 6.46945 40.9343 5.03154 39.7231 3.82034C38.5119 2.60915 37.074 1.64837 35.4915 0.992875C33.909 0.337379 32.2129 -2.24619e-07 30.5 0L30.5 6.52174C31.3564 6.52174 32.2045 6.69043 32.9958 7.01818C33.787 7.34592 34.506 7.82631 35.1116 8.43191C35.7172 9.03751 36.1976 9.75646 36.5253 10.5477C36.8531 11.339 37.0217 12.187 37.0217 13.0435C37.0217 13.8999 36.8531 14.748 36.5253 15.5392C36.1976 16.3305 35.7172 17.0494 35.1116 17.655C34.506 18.2606 33.787 18.741 32.9958 19.0688C32.2045 19.3965 31.3564 19.5652 30.5 19.5652L30.5 26.087Z"
    fill="#39E9B4" />
  <path
    d="M30.5 60C28.7871 60 27.091 59.6627 25.5085 59.0072C23.926 58.3517 22.4881 57.3909 21.2769 56.1797C20.0657 54.9685 19.1049 53.5306 18.4494 51.9481C17.7939 50.3656 17.4565 48.6695 17.4565 46.9566C17.4565 45.2437 17.7939 43.5475 18.4494 41.965C19.1049 40.3825 20.0657 38.9446 21.2769 37.7334C22.4881 36.5222 23.926 35.5615 25.5085 34.906C27.091 34.2505 28.7871 33.9131 30.5 33.9131L30.5 40.4348C29.6436 40.4348 28.7955 40.6035 28.0042 40.9313C27.213 41.259 26.494 41.7394 25.8884 42.345C25.2828 42.9506 24.8024 43.6695 24.4747 44.4608C24.1469 45.2521 23.9783 46.1001 23.9783 46.9566C23.9783 47.813 24.1469 48.6611 24.4747 49.4523C24.8024 50.2436 25.2828 50.9625 25.8884 51.5681C26.494 52.1737 27.213 52.6541 28.0042 52.9819C28.7955 53.3096 29.6436 53.4783 30.5 53.4783L30.5 60Z"
    fill="#39E9B4" />
  <path
    d="M30.5 60C32.2129 60 33.909 59.6627 35.4915 59.0072C37.074 58.3517 38.5119 57.3909 39.7231 56.1797C40.9343 54.9685 41.8951 53.5306 42.5506 51.9481C43.2061 50.3656 43.5435 48.6695 43.5435 46.9566C43.5435 45.2437 43.2061 43.5475 42.5506 41.965C41.8951 40.3825 40.9343 38.9446 39.7231 37.7334C38.5119 36.5222 37.074 35.5615 35.4915 34.906C33.909 34.2505 32.2129 33.9131 30.5 33.9131L30.5 40.4348C31.3564 40.4348 32.2045 40.6035 32.9958 40.9313C33.787 41.259 34.506 41.7394 35.1116 42.345C35.7172 42.9506 36.1976 43.6695 36.5253 44.4608C36.8531 45.2521 37.0217 46.1001 37.0217 46.9566C37.0217 47.813 36.8531 48.6611 36.5253 49.4523C36.1976 50.2436 35.7172 50.9625 35.1116 51.5681C34.506 52.1737 33.787 52.6541 32.9958 52.9819C32.2045 53.3096 31.3564 53.4783 30.5 53.4783L30.5 60Z"
    fill="#39E9B4" />
  <path
    d="M13.5435 43.0435C11.8306 43.0435 10.1344 42.7061 8.55193 42.0506C6.96942 41.3951 5.53152 40.4344 4.32032 39.2232C3.10912 38.012 2.14835 36.5741 1.49285 34.9915C0.837356 33.409 0.499977 31.7129 0.499977 30C0.499978 28.2871 0.837358 26.591 1.49285 25.0085C2.14835 23.426 3.10912 21.9881 4.32032 20.7769C5.53152 19.5657 6.96943 18.6049 8.55193 17.9494C10.1344 17.2939 11.8306 16.9565 13.5435 16.9565L13.5435 23.4783C12.687 23.4783 11.8389 23.647 11.0477 23.9747C10.2564 24.3025 9.53749 24.7829 8.93189 25.3885C8.32629 25.9941 7.8459 26.713 7.51816 27.5043C7.19041 28.2955 7.02172 29.1436 7.02172 30C7.02172 30.8565 7.19041 31.7045 7.51815 32.4958C7.8459 33.287 8.32629 34.006 8.93189 34.6116C9.53749 35.2172 10.2564 35.6976 11.0477 36.0253C11.8389 36.3531 12.687 36.5218 13.5435 36.5218L13.5435 43.0435Z"
    fill="#39E9B4" />
  <path
    d="M13.5435 43.0435C15.2564 43.0435 16.9525 42.7061 18.535 42.0506C20.1175 41.3951 21.5554 40.4344 22.7666 39.2232C23.9778 38.012 24.9386 36.5741 25.5941 34.9915C26.2496 33.409 26.5869 31.7129 26.5869 30C26.5869 28.2871 26.2496 26.591 25.5941 25.0085C24.9386 23.426 23.9778 21.9881 22.7666 20.7769C21.5554 19.5657 20.1175 18.6049 18.535 17.9494C16.9525 17.2939 15.2564 16.9565 13.5435 16.9565L13.5435 23.4783C14.3999 23.4783 15.248 23.647 16.0392 23.9747C16.8305 24.3025 17.5494 24.7829 18.155 25.3885C18.7606 25.9941 19.241 26.713 19.5688 27.5043C19.8965 28.2955 20.0652 29.1436 20.0652 30C20.0652 30.8565 19.8965 31.7045 19.5688 32.4958C19.241 33.287 18.7606 34.006 18.155 34.6116C17.5494 35.2172 16.8305 35.6976 16.0392 36.0253C15.248 36.3531 14.3999 36.5218 13.5435 36.5218L13.5435 43.0435Z"
    fill="#39E9B4" />
  <path
    d="M47.4565 43.0435C45.7436 43.0435 44.0475 42.7061 42.465 42.0506C40.8825 41.3951 39.4446 40.4344 38.2334 39.2232C37.0222 38.012 36.0614 36.5741 35.4059 34.9915C34.7504 33.409 34.4131 31.7129 34.4131 30C34.4131 28.2871 34.7504 26.591 35.4059 25.0085C36.0614 23.426 37.0222 21.9881 38.2334 20.7769C39.4446 19.5657 40.8825 18.6049 42.465 17.9494C44.0475 17.2939 45.7436 16.9565 47.4565 16.9565L47.4565 23.4783C46.6001 23.4783 45.752 23.647 44.9608 23.9747C44.1695 24.3025 43.4506 24.7829 42.845 25.3885C42.2394 25.9941 41.759 26.713 41.4312 27.5043C41.1035 28.2955 40.9348 29.1436 40.9348 30C40.9348 30.8565 41.1035 31.7045 41.4312 32.4958C41.759 33.287 42.2394 34.006 42.845 34.6116C43.4506 35.2172 44.1695 35.6976 44.9608 36.0253C45.752 36.3531 46.6001 36.5218 47.4565 36.5218L47.4565 43.0435Z"
    fill="#39E9B4" />
  <path
    d="M47.4565 43.0435C49.1694 43.0435 50.8656 42.7061 52.4481 42.0506C54.0306 41.3951 55.4685 40.4344 56.6797 39.2232C57.8909 38.012 58.8517 36.5741 59.5071 34.9915C60.1626 33.409 60.5 31.7129 60.5 30C60.5 28.2871 60.1626 26.591 59.5071 25.0085C58.8516 23.426 57.8909 21.9881 56.6797 20.7769C55.4685 19.5657 54.0306 18.6049 52.4481 17.9494C50.8656 17.2939 49.1694 16.9565 47.4565 16.9565L47.4565 23.4783C48.313 23.4783 49.1611 23.647 49.9523 23.9747C50.7436 24.3025 51.4625 24.7829 52.0681 25.3885C52.6737 25.9941 53.1541 26.713 53.4818 27.5043C53.8096 28.2955 53.9783 29.1436 53.9783 30C53.9783 30.8565 53.8096 31.7045 53.4818 32.4958C53.1541 33.287 52.6737 34.006 52.0681 34.6116C51.4625 35.2172 50.7436 35.6976 49.9523 36.0253C49.1611 36.3531 48.313 36.5218 47.4565 36.5218L47.4565 43.0435Z"
    fill="#39E9B4" />
</svg>