<svg width="61" height="60" viewBox="0 0 61 60" fill="none" xmlns="http://www.w3.org/2000/svg">
  <path
    d="M17.4565 30C17.4565 31.7129 17.7939 33.409 18.4494 34.9915C19.1049 36.574 20.0656 38.0119 21.2768 39.2231C22.488 40.4343 23.9259 41.3951 25.5085 42.0506C27.091 42.7061 28.7871 43.0435 30.5 43.0435C32.2129 43.0435 33.909 42.7061 35.4915 42.0506C37.074 41.3951 38.5119 40.4343 39.7231 39.2231C40.9343 38.0119 41.8951 36.574 42.5506 34.9915C43.2061 33.409 43.5435 31.7129 43.5435 30L37.0217 30C37.0217 30.8564 36.853 31.7045 36.5253 32.4958C36.1975 33.287 35.7171 34.006 35.1115 34.6116C34.5059 35.2172 33.787 35.6976 32.9957 36.0253C32.2045 36.353 31.3564 36.5217 30.5 36.5217C29.6435 36.5217 28.7955 36.353 28.0042 36.0253C27.213 35.6976 26.494 35.2172 25.8884 34.6116C25.2828 34.006 24.8024 33.287 24.4747 32.4958C24.1469 31.7045 23.9782 30.8564 23.9782 30L17.4565 30Z"
    fill="#39E9B4" />
  <path
    d="M17.4565 -1.03667e-06C17.4565 1.71289 17.7939 3.40901 18.4494 4.99152C19.1049 6.57403 20.0656 8.01193 21.2768 9.22313C22.488 10.4343 23.9259 11.3951 25.5085 12.0506C27.091 12.7061 28.7871 13.0435 30.5 13.0435C32.2129 13.0435 33.909 12.7061 35.4915 12.0506C37.074 11.3951 38.5119 10.4343 39.7231 9.22313C40.9343 8.01193 41.8951 6.57403 42.5506 4.99152C43.2061 3.40902 43.5435 1.71289 43.5435 0L37.0217 6.73774e-07C37.0217 0.856448 36.853 1.70451 36.5253 2.49576C36.1975 3.28702 35.7171 4.00597 35.1115 4.61157C34.5059 5.21717 33.787 5.69755 32.9957 6.0253C32.2045 6.35305 31.3564 6.52174 30.5 6.52174C29.6435 6.52174 28.7955 6.35305 28.0042 6.0253C27.213 5.69755 26.494 5.21716 25.8884 4.61157C25.2828 4.00597 24.8024 3.28701 24.4747 2.49576C24.1469 1.70451 23.9782 0.856446 23.9782 -4.66523e-07L17.4565 -1.03667e-06Z"
    fill="#39E9B4" />
  <path
    d="M17.4565 60C17.4565 58.2871 17.7939 56.591 18.4494 55.0085C19.1049 53.426 20.0656 51.9881 21.2768 50.7769C22.488 49.5657 23.9259 48.6049 25.5085 47.9494C27.091 47.2939 28.7871 46.9565 30.5 46.9565C32.2129 46.9565 33.909 47.2939 35.4915 47.9494C37.074 48.6049 38.5119 49.5657 39.7231 50.7769C40.9343 51.9881 41.8951 53.426 42.5506 55.0085C43.2061 56.591 43.5435 58.2871 43.5435 60L37.0217 60C37.0217 59.1436 36.853 58.2955 36.5253 57.5042C36.1975 56.713 35.7171 55.994 35.1115 55.3884C34.5059 54.7828 33.787 54.3024 32.9957 53.9747C32.2045 53.647 31.3564 53.4783 30.5 53.4783C29.6435 53.4783 28.7955 53.647 28.0042 53.9747C27.213 54.3024 26.494 54.7828 25.8884 55.3884C25.2828 55.994 24.8024 56.713 24.4747 57.5042C24.1469 58.2955 23.9782 59.1436 23.9782 60L17.4565 60Z"
    fill="#39E9B4" />
  <path
    d="M0.500002 16.9565C2.2129 16.9565 3.90902 17.2939 5.49152 17.9494C7.07403 18.6049 8.51193 19.5656 9.72313 20.7768C10.9343 21.988 11.8951 23.4259 12.5506 25.0085C13.2061 26.591 13.5435 28.2871 13.5435 30C13.5435 31.7129 13.2061 33.409 12.5506 34.9915C11.8951 36.574 10.9343 38.0119 9.72313 39.2231C8.51193 40.4343 7.07403 41.3951 5.49152 42.0506C3.90902 42.7061 2.21289 43.0435 0.5 43.0435L0.500001 36.5217C1.35645 36.5217 2.20451 36.353 2.99576 36.0253C3.78702 35.6975 4.50597 35.2171 5.11157 34.6115C5.71717 34.0059 6.19755 33.287 6.5253 32.4957C6.85305 31.7045 7.02174 30.8564 7.02174 30C7.02174 29.1435 6.85305 28.2955 6.5253 27.5042C6.19755 26.713 5.71717 25.994 5.11157 25.3884C4.50597 24.7828 3.78702 24.3024 2.99576 23.9747C2.20451 23.6469 1.35645 23.4782 0.500001 23.4782L0.500002 16.9565Z"
    fill="#39E9B4" />
  <path
    d="M60.5 16.9565C58.7871 16.9565 57.091 17.2939 55.5085 17.9494C53.926 18.6049 52.4881 19.5656 51.2769 20.7768C50.0657 21.988 49.1049 23.4259 48.4494 25.0085C47.7939 26.591 47.4565 28.2871 47.4565 30C47.4565 31.7129 47.7939 33.409 48.4494 34.9915C49.1049 36.574 50.0657 38.0119 51.2769 39.2231C52.4881 40.4343 53.926 41.3951 55.5085 42.0506C57.091 42.7061 58.7871 43.0435 60.5 43.0435L60.5 36.5217C59.6436 36.5217 58.7955 36.353 58.0042 36.0253C57.213 35.6975 56.494 35.2171 55.8884 34.6115C55.2828 34.0059 54.8024 33.287 54.4747 32.4957C54.147 31.7045 53.9783 30.8564 53.9783 30C53.9783 29.1435 54.1469 28.2955 54.4747 27.5042C54.8024 26.713 55.2828 25.994 55.8884 25.3884C56.494 24.7828 57.213 24.3024 58.0042 23.9747C58.7955 23.6469 59.6436 23.4782 60.5 23.4782L60.5 16.9565Z"
    fill="#39E9B4" />
  <path
    d="M43.5435 30C43.5435 28.2871 43.2061 26.591 42.5506 25.0085C41.8951 23.426 40.9344 21.9881 39.7232 20.7769C38.512 19.5657 37.0741 18.6049 35.4915 17.9494C33.909 17.2939 32.2129 16.9565 30.5 16.9565C28.7871 16.9565 27.091 17.2939 25.5085 17.9494C23.926 18.6049 22.4881 19.5657 21.2769 20.7769C20.0657 21.9881 19.1049 23.426 18.4494 25.0085C17.7939 26.591 17.4565 28.2871 17.4565 30L23.9783 30C23.9783 29.1436 24.147 28.2955 24.4747 27.5042C24.8025 26.713 25.2829 25.994 25.8885 25.3884C26.4941 24.7828 27.213 24.3024 28.0043 23.9747C28.7955 23.647 29.6436 23.4783 30.5 23.4783C31.3565 23.4783 32.2045 23.647 32.9958 23.9747C33.787 24.3024 34.506 24.7828 35.1116 25.3884C35.7172 25.994 36.1976 26.713 36.5253 27.5042C36.8531 28.2955 37.0218 29.1436 37.0218 30L43.5435 30Z"
    fill="#39E9B4" />
</svg>