<svg width="60" height="60" viewBox="0 0 60 60" fill="none" xmlns="http://www.w3.org/2000/svg">
  <path
    d="M16.9565 13.0435C16.9565 11.3306 17.2939 9.63444 17.9494 8.05193C18.6049 6.46943 19.5656 5.03152 20.7768 3.82033C21.988 2.60913 23.4259 1.64835 25.0085 0.992853C26.591 0.337357 28.2871 -2.15981e-05 30 -2.17479e-05C31.7129 -2.18976e-05 33.409 0.337358 34.9915 0.992855C36.574 1.64835 38.0119 2.60912 39.2231 3.82032C40.4343 5.03152 41.3951 6.46943 42.0506 8.05193C42.7061 9.63444 43.0435 11.3306 43.0435 13.0435L36.5217 13.0435C36.5217 12.187 36.353 11.3389 36.0253 10.5477C35.6975 9.75644 35.2171 9.03749 34.6115 8.43189C34.0059 7.82629 33.287 7.3459 32.4957 7.01816C31.7045 6.69041 30.8564 6.52172 30 6.52172C29.1435 6.52172 28.2955 6.69041 27.5042 7.01816C26.713 7.3459 25.994 7.82629 25.3884 8.43189C24.7828 9.03749 24.3024 9.75644 23.9747 10.5477C23.6469 11.339 23.4782 12.187 23.4782 13.0435L16.9565 13.0435Z"
    fill="#39E9B4" />
  <path
    d="M16.9565 46.9565C16.9565 48.6694 17.2939 50.3656 17.9494 51.9481C18.6049 53.5306 19.5656 54.9685 20.7768 56.1797C21.988 57.3909 23.4259 58.3517 25.0085 59.0071C26.591 59.6626 28.2871 60 30 60C31.7129 60 33.409 59.6626 34.9915 59.0071C36.574 58.3516 38.0119 57.3909 39.2231 56.1797C40.4343 54.9685 41.3951 53.5306 42.0506 51.9481C42.7061 50.3656 43.0435 48.6694 43.0435 46.9565L36.5217 46.9565C36.5217 47.813 36.353 48.6611 36.0253 49.4523C35.6975 50.2436 35.2171 50.9625 34.6115 51.5681C34.0059 52.1737 33.287 52.6541 32.4957 52.9818C31.7045 53.3096 30.8564 53.4783 30 53.4783C29.1435 53.4783 28.2955 53.3096 27.5042 52.9818C26.713 52.6541 25.994 52.1737 25.3884 51.5681C24.7828 50.9625 24.3024 50.2436 23.9747 49.4523C23.6469 48.661 23.4782 47.813 23.4782 46.9565L16.9565 46.9565Z"
    fill="#39E9B4" />
  <path
    d="M13.0435 16.9565C11.3306 16.9565 9.63444 17.2939 8.05193 17.9494C6.46942 18.6049 5.03152 19.5656 3.82032 20.7768C2.60912 21.988 1.64835 23.4259 0.992852 25.0085C0.337356 26.591 -2.21105e-05 28.2871 -2.20901e-05 30C-2.20696e-05 31.7129 0.337358 33.409 0.992855 34.9915C1.64835 36.574 2.60913 38.0119 3.82032 39.2231C5.03152 40.4343 6.46943 41.3951 8.05193 42.0506C9.63444 42.7061 11.3306 43.0435 13.0435 43.0435L13.0435 36.5217C12.187 36.5217 11.3389 36.353 10.5477 36.0253C9.75644 35.6975 9.03749 35.2171 8.43189 34.6115C7.82629 34.0059 7.3459 33.287 7.01816 32.4957C6.69041 31.7045 6.52172 30.8564 6.52172 30C6.52172 29.1435 6.69041 28.2955 7.01815 27.5042C7.3459 26.713 7.82629 25.994 8.43189 25.3884C9.03749 24.7828 9.75644 24.3024 10.5477 23.9747C11.3389 23.6469 12.187 23.4782 13.0435 23.4782L13.0435 16.9565Z"
    fill="#39E9B4" />
  <path
    d="M46.9565 16.9565C48.6694 16.9565 50.3656 17.2939 51.9481 17.9494C53.5306 18.6049 54.9685 19.5656 56.1797 20.7768C57.3909 21.988 58.3517 23.4259 59.0071 25.0085C59.6626 26.591 60 28.2871 60 30C60 31.7129 59.6626 33.409 59.0071 34.9915C58.3516 36.574 57.3909 38.0119 56.1797 39.2231C54.9685 40.4343 53.5306 41.3951 51.9481 42.0506C50.3656 42.7061 48.6694 43.0435 46.9565 43.0435L46.9565 36.5217C47.813 36.5217 48.6611 36.353 49.4523 36.0253C50.2436 35.6975 50.9625 35.2171 51.5681 34.6115C52.1737 34.0059 52.6541 33.287 52.9818 32.4957C53.3096 31.7045 53.4783 30.8564 53.4783 30C53.4783 29.1435 53.3096 28.2955 52.9818 27.5042C52.6541 26.713 52.1737 25.994 51.5681 25.3884C50.9625 24.7828 50.2436 24.3024 49.4523 23.9747C48.6611 23.6469 47.813 23.4782 46.9565 23.4782L46.9565 16.9565Z"
    fill="#39E9B4" />
  <path
    d="M16.9565 30C16.9565 31.7129 17.2939 33.409 17.9494 34.9915C18.6049 36.574 19.5656 38.0119 20.7768 39.2231C21.988 40.4343 23.4259 41.3951 25.0085 42.0506C26.591 42.7061 28.2871 43.0435 30 43.0435C31.7129 43.0435 33.409 42.7061 34.9915 42.0506C36.574 41.3951 38.0119 40.4343 39.2231 39.2231C40.4343 38.0119 41.3951 36.574 42.0506 34.9915C42.7061 33.409 43.0435 31.7129 43.0435 30L36.5217 30C36.5217 30.8564 36.353 31.7045 36.0253 32.4958C35.6975 33.287 35.2171 34.006 34.6115 34.6116C34.0059 35.2172 33.287 35.6976 32.4957 36.0253C31.7045 36.353 30.8564 36.5217 30 36.5217C29.1435 36.5217 28.2955 36.353 27.5042 36.0253C26.713 35.6976 25.994 35.2172 25.3884 34.6116C24.7828 34.006 24.3024 33.287 23.9747 32.4958C23.6469 31.7045 23.4782 30.8564 23.4782 30L16.9565 30Z"
    fill="#39E9B4" />
  <path
    d="M43.0435 30C43.0435 28.2871 42.7061 26.591 42.0506 25.0085C41.3951 23.426 40.4344 21.9881 39.2232 20.7769C38.012 19.5657 36.5741 18.6049 34.9915 17.9494C33.409 17.2939 31.7129 16.9565 30 16.9565C28.2871 16.9565 26.591 17.2939 25.0085 17.9494C23.426 18.6049 21.9881 19.5657 20.7769 20.7769C19.5657 21.9881 18.6049 23.426 17.9494 25.0085C17.2939 26.591 16.9565 28.2871 16.9565 30L23.4783 30C23.4783 29.1436 23.647 28.2955 23.9747 27.5042C24.3025 26.713 24.7829 25.994 25.3885 25.3884C25.9941 24.7828 26.713 24.3024 27.5043 23.9747C28.2955 23.647 29.1436 23.4783 30 23.4783C30.8565 23.4783 31.7045 23.647 32.4958 23.9747C33.287 24.3024 34.006 24.7828 34.6116 25.3884C35.2172 25.994 35.6976 26.713 36.0253 27.5042C36.3531 28.2955 36.5218 29.1436 36.5218 30L43.0435 30Z"
    fill="#39E9B4" />
</svg>