<svg width="1512" height="1192" fill="none" xmlns="http://www.w3.org/2000/svg">
  <g clip-path="url(#prefix__clip0_2653_11948)">
    <path fill-rule="evenodd" clip-rule="evenodd"
      d="M1307.18 799.76c35.23 0 63.79-28.56 63.79-63.791 0-35.232-28.56-63.792-63.79-63.792-35.23 0-63.79 28.56-63.79 63.792 0 35.231 28.56 63.791 63.79 63.791zm-.63-31.896c17.26 0 31.26-14.28 31.26-31.896 0-17.615-14-31.896-31.26-31.896-17.27 0-31.26 14.281-31.26 31.896 0 17.616 13.99 31.896 31.26 31.896z"
      fill="#39E9B4" fill-opacity=".3" />
    <path fill-rule="evenodd" clip-rule="evenodd"
      d="M1307.51 735.972l-.33-.001-.33.001h.66zm63.46 63.792c0 35.231-28.56 63.791-63.79 63.791-35.23 0-63.79-28.56-63.79-63.791h31.9c0 17.615 13.99 31.895 31.26 31.895 17.26 0 31.25-14.28 31.26-31.895h33.16zM1179.6 799.437c-35.23 0-63.79 28.56-63.79 63.792 0 35.231 28.56 63.792 63.79 63.792 35.23 0 63.79-28.561 63.79-63.792 0-35.232-28.56-63.792-63.79-63.792zm.63 31.897c-17.26 0-31.25 14.28-31.25 31.896s13.99 31.896 31.25 31.896c17.27 0 31.26-14.28 31.26-31.896s-13.99-31.896-31.26-31.896zM1243.39 799.435v-.001c0-35.231-28.56-63.791-63.79-63.791-35.23 0-63.79 28.56-63.79 63.791v.001h33.17v-.001c0-17.616 13.99-31.896 31.25-31.896 17.27 0 31.26 14.28 31.26 31.896v.001h31.9z"
      fill="#39E9B4" fill-opacity=".5" />
    <path fill-rule="evenodd" clip-rule="evenodd"
      d="M1243.39 672.179v.002c0 35.231-28.56 63.792-63.79 63.792-35.23 0-63.79-28.561-63.79-63.792v-.002h33.17v.001c0 17.616 13.99 31.896 31.25 31.896 17.27 0 31.26-14.28 31.26-31.896v-.001h31.9zM1212.13 354.033c35.23 0 63.79-28.561 63.79-63.792s-28.56-63.792-63.79-63.792c-35.23 0-63.79 28.561-63.79 63.792s28.56 63.792 63.79 63.792zm-.64-31.896c17.27 0 31.26-14.281 31.26-31.896 0-17.616-13.99-31.896-31.26-31.896-17.26 0-31.26 14.28-31.26 31.896 0 17.615 14 31.896 31.26 31.896z"
      fill="#39E9B4" fill-opacity=".3" />
    <path fill-rule="evenodd" clip-rule="evenodd"
      d="M1212.46 290.244l-.33-.001-.33.001h.66zm63.46 63.792c0 35.231-28.56 63.791-63.79 63.791-35.23 0-63.79-28.56-63.79-63.791h31.89c.01 17.615 14 31.895 31.26 31.895 17.27 0 31.26-14.28 31.26-31.895h33.17zM1020.96 672.358c0-35.231 28.56-63.792 63.79-63.792 35.23 0 63.79 28.561 63.79 63.792h-33.16c0-17.616-14-31.896-31.26-31.896-17.27 0-31.26 14.28-31.26 31.896h-31.9zM957.169 544.774c-35.231 0-63.792 28.56-63.792 63.792 0 35.231 28.561 63.791 63.792 63.791s63.791-28.56 63.791-63.791c0-35.232-28.56-63.792-63.791-63.792zm.635 31.897c-17.263 0-31.258 14.28-31.258 31.896s13.995 31.896 31.258 31.896c17.264 0 31.258-14.28 31.258-31.896s-13.994-31.896-31.258-31.896zM1148.34 353.706c0-35.232-28.56-63.792-63.8-63.792-35.23 0-63.79 28.56-63.79 63.792h33.17v-.001c0-17.615 14-31.896 31.26-31.896s31.26 14.281 31.26 31.896v.001h31.9zM1084.75 545.098c35.23 0 63.79-28.56 63.79-63.791 0-35.232-28.56-63.792-63.79-63.792-35.23 0-63.79 28.56-63.79 63.792 0 35.231 28.56 63.791 63.79 63.791zm-.63-31.896c17.26 0 31.26-14.28 31.26-31.896s-14-31.896-31.26-31.896c-17.27 0-31.26 14.28-31.26 31.896s13.99 31.896 31.26 31.896z"
      fill="#39E9B4" fill-opacity=".3" />
    <path fill-rule="evenodd" clip-rule="evenodd"
      d="M1085.09 481.31l-.34-.001-.33.001h.67zm63.45 63.792c0 35.23-28.56 63.791-63.79 63.791-35.23 0-63.79-28.561-63.79-63.791h31.9c0 17.615 13.99 31.894 31.26 31.894 17.26 0 31.25-14.279 31.26-31.894h33.16zM1020.96 544.771v-.001c0-35.231-28.56-63.791-63.791-63.791-35.231 0-63.792 28.56-63.792 63.791v.001h33.169v-.001c0-17.616 13.995-31.896 31.258-31.896 17.264 0 31.258 14.28 31.258 31.896v.001h31.898zM1148.34 226.45v.002c0 35.231-28.56 63.792-63.8 63.792-35.23 0-63.79-28.561-63.79-63.792v-.002h33.17v.001c0 17.616 14 31.896 31.26 31.896s31.26-14.28 31.26-31.896v-.001h31.9zM957.378 417.721c35.231 0 63.792-28.561 63.792-63.792s-28.561-63.792-63.792-63.792-63.792 28.561-63.792 63.792 28.561 63.792 63.792 63.792zm-.636-31.896c17.264 0 31.258-14.281 31.258-31.896 0-17.616-13.994-31.896-31.258-31.896-17.263 0-31.258 14.28-31.258 31.896 0 17.615 13.995 31.896 31.258 31.896z"
      fill="#39E9B4" fill-opacity=".3" />
    <path fill-rule="evenodd" clip-rule="evenodd"
      d="M957.71 353.933l-.332-.001-.332.001h.664zm63.46 63.792c0 35.23-28.561 63.791-63.792 63.791s-63.792-28.561-63.792-63.791h31.898c.001 17.615 13.996 31.894 31.258 31.894 17.263 0 31.258-14.279 31.258-31.894h33.17zM893.586 417.395v-.001c0-35.231-28.561-63.791-63.792-63.791s-63.792 28.56-63.792 63.791v.001h33.169v-.001c0-17.616 13.995-31.896 31.258-31.896 17.264 0 31.259 14.28 31.259 31.896v.001h31.898z"
      fill="#39E9B4" fill-opacity=".3" />
    <path fill-rule="evenodd" clip-rule="evenodd"
      d="M893.586 290.139v.002c0 35.231-28.561 63.792-63.792 63.792s-63.792-28.561-63.792-63.792v-.002h33.169v.001c0 17.616 13.995 31.896 31.258 31.896 17.264 0 31.259-14.28 31.259-31.896v-.001h31.898zM1431.98 190.909v-.001c0-35.231 28.56-63.792 63.79-63.792 35.23 0 63.79 28.561 63.79 63.792v.001h-33.16v-.001c0-17.616-14-31.896-31.26-31.896-17.27 0-31.26 14.28-31.26 31.896v.001h-31.9zM1368.19 63.324c-35.23 0-63.79 28.56-63.79 63.791 0 35.232 28.56 63.792 63.79 63.792 35.23 0 63.79-28.56 63.79-63.792 0-35.23-28.56-63.791-63.79-63.791zm.63 31.897c-17.26 0-31.25 14.28-31.25 31.896 0 17.615 13.99 31.896 31.25 31.896 17.27 0 31.26-14.281 31.26-31.896 0-17.616-13.99-31.896-31.26-31.896zM1495.77 63.648c35.23 0 63.79-28.56 63.79-63.792 0-35.231-28.56-63.791-63.79-63.791-35.23 0-63.79 28.56-63.79 63.791 0 35.232 28.56 63.792 63.79 63.792zm-.63-31.896c17.26 0 31.26-14.28 31.26-31.896s-14-31.896-31.26-31.896c-17.27 0-31.26 14.28-31.26 31.896 0 17.615 13.99 31.896 31.26 31.896z"
      fill="#39E9B4" fill-opacity=".3" />
    <path fill-rule="evenodd" clip-rule="evenodd"
      d="M1495.89-.14a70.588 70.588 0 00-.24 0h.24zm63.67 63.702v.09c0 35.23-28.56 63.791-63.79 63.791-35.23 0-63.79-28.56-63.79-63.791h31.9c0 17.615 13.99 31.895 31.26 31.895 17.26 0 31.26-14.28 31.26-31.895h33.16v-.09zM1431.98 63.321c0-35.231-28.56-63.792-63.79-63.792-35.23 0-63.79 28.56-63.79 63.792h33.17c0-17.616 13.99-31.896 31.25-31.896 17.27 0 31.26 14.28 31.26 31.896h31.9z"
      fill="#39E9B4" fill-opacity=".3" />
    <path fill-rule="evenodd" clip-rule="evenodd"
      d="M1368.74-127.517l-.34-.001-.34.001h.68zm63.45 63.736v.055c0 35.23-28.56 63.791-63.79 63.791-35.23 0-63.79-28.56-63.79-63.79h127.58v-.056zm-95.68.055c0 17.615 13.99 31.895 31.26 31.895 17.26 0 31.25-14.28 31.25-31.895"
      fill="#39E9B4" fill-opacity=".3" />
    <path transform="matrix(0 -1 -1 0 1520 1426.5)" fill="url(#prefix__paint0_linear_2653_11948)"
      d="M0 0h1102.38v1518.52H0z" />
    <path transform="matrix(0 -1 -1 0 1520 1388.87)" fill="url(#prefix__paint1_linear_2653_11948)"
      d="M0 0h1102.38v1518.52H0z" />
    <path transform="matrix(0 -1 -1 0 1518.52 1091.98)" fill="url(#prefix__paint2_linear_2653_11948)"
      d="M0 0h1782.48v1518.52H0z" />
  </g>
  <defs>
    <linearGradient id="prefix__paint0_linear_2653_11948" x1="-298.301" y1="663.247" x2="1048.71" y2="691.188"
      gradientUnits="userSpaceOnUse">
      <stop />
      <stop offset="1" stop-opacity="0" />
    </linearGradient>
    <linearGradient id="prefix__paint1_linear_2653_11948" x1="-298.301" y1="663.247" x2="1048.71" y2="691.188"
      gradientUnits="userSpaceOnUse">
      <stop />
      <stop offset="1" stop-opacity="0" />
    </linearGradient>
    <linearGradient id="prefix__paint2_linear_2653_11948" x1="-482.336" y1="663.247" x2="1694.19" y2="736.248"
      gradientUnits="userSpaceOnUse">
      <stop />
      <stop offset="1" stop-opacity="0" />
    </linearGradient>
    <clipPath id="prefix__clip0_2653_11948">
      <path fill="#fff" d="M0 0h1512v1192H0z" />
    </clipPath>
  </defs>
</svg>